<svg
  xmlns="http://www.w3.org/2000/svg"
  width="782"
  height="206"
  viewBox="0 0 7820 2060"
>
  <g fill="rgb(255,255,255)" style="transform: none">
    <g style="transform: none">
      <path
        d="M 4050 1669 c -164 -28 -294 -147 -342 -317 -25 -89 -27 -246 -3 -328 36 -127 113 -222 222 -276 58 -28 78 -33 165 -36 82 -4 110 -1 167 18 38 12 79 31 90 41 11 10 24 19 28 19 17 0 75 73 115 146 24 45 47 140 55 228 l 6 76 -337 0 c -229 0 -336 3 -336 11 0 29 26 108 45 139 25 39 70 90 81 90 3 0 22 7 41 16 76 37 234 -6 270 -73 l 18 -33 97 0 c 60 0 98 4 98 10 0 18 -58 115 -95 158 -42 48 -135 97 -214 112 -62 12 -94 11 -171 -1 z  m 288 -596 c 2 -18 -1 -33 -6 -33 -5 0 -9 -12 -9 -26 0 -18 -16 -42 -50 -75 l -49 -50 -85 -6 c -69 -5 -91 -2 -119 12 -55 28 -88 65 -110 122 -36 97 -51 90 203 89 l 222 -1 3 -32 z "
      ></path>
      <path
        d="M 6762 1669 c -89 -10 -209 -59 -267 -108 -53 -45 -110 -128 -132 -195 -15 -45 -18 -108 -20 -518 l -3 -468 115 0 115 0 0 444 0 443 36 72 c 19 39 42 71 50 71 8 0 14 4 14 8 0 5 23 19 52 33 73 34 182 33 253 -3 64 -33 102 -71 129 -128 20 -43 21 -62 24 -493 l 3 -448 115 3 115 3 -1 442 c 0 243 -3 457 -6 475 -23 133 -80 220 -191 294 -94 62 -251 91 -401 73 z "
      ></path>
      <path
        d="M 4874 1652 c -73 -26 -128 -74 -160 -138 -24 -49 -26 -63 -22 -134 5 -84 22 -118 93 -183 62 -57 203 -86 413 -87 l 92 0 0 -64 c 0 -110 -60 -166 -178 -166 -96 0 -166 36 -192 101 -12 29 -13 29 -101 29 l -89 0 0 -28 c 0 -45 57 -147 106 -190 76 -68 220 -98 374 -79 67 8 178 63 193 94 6 13 13 23 16 23 12 0 43 62 57 114 10 38 14 134 14 384 l 0 332 -95 0 -95 0 0 -55 c 0 -63 -10 -68 -47 -25 -47 56 -114 82 -227 87 -80 3 -111 0 -152 -15 z  m 243 -146 c 4 -3 14 -6 24 -6 9 0 36 -12 59 -27 56 -37 93 -109 91 -177 0 -27 -2 -50 -3 -52 -7 -6 -149 -7 -211 -1 -118 12 -177 59 -177 142 0 62 41 116 95 126 29 6 115 2 122 -5 z "
      ></path>
      <path
        d="M 2630 1021 l 0 -641 248 0 c 231 0 350 9 390 29 9 5 31 15 47 22 66 29 126 81 152 133 36 69 44 203 18 273 -22 57 -94 131 -135 139 -31 7 -43 34 -15 34 50 0 150 80 190 150 24 44 34 198 15 256 -30 92 -118 175 -230 217 -50 19 -81 21 -367 25 l -313 3 0 -640 z  m 534 439 c 96 -32 121 -52 141 -115 10 -32 14 -67 11 -81 -24 -96 -75 -142 -163 -151 -29 -3 -53 -10 -53 -14 0 -5 -56 -9 -125 -9 l -125 0 0 189 c 0 172 2 190 18 194 9 3 67 5 127 6 84 0 124 -4 169 -19 z  m -34 -540 c 59 -11 112 -46 141 -94 50 -81 -5 -209 -101 -236 -19 -5 -99 -10 -177 -10 l -143 0 0 175 0 175 114 0 c 62 0 137 -5 166 -10 z "
      ></path>
      <path
        d="M 5916 1641 c -56 -20 -119 -89 -136 -149 -5 -21 -10 -157 -10 -314 l 0 -278 -75 0 -75 0 0 -90 0 -90 75 0 75 0 0 -120 0 -120 99 0 99 0 -1 120 -2 120 106 0 106 0 5 78 c 3 42 3 82 1 89 -3 8 -39 13 -110 15 l -105 3 1 240 2 240 26 37 c 30 44 84 63 150 54 l 42 -5 -2 92 -2 92 -110 2 c -83 1 -122 -3 -159 -16 z "
      ></path>
      <path
        d="M 7570 1020 l 0 -640 110 0 110 0 0 640 0 640 -110 0 -110 0 0 -640 z "
      ></path>
    </g>
  </g>
  <g fill="rgb(235,60,58)" style="transform: none">
    <g style="transform: none">
      <path
        d="M 1131 2023 c -19 -9 -36 -25 -39 -35 -2 -10 -10 -18 -17 -18 -7 0 -15 -14 -19 -31 -3 -17 -6 -430 -6 -917 0 -881 0 -885 21 -927 26 -52 80 -85 138 -85 22 0 41 4 41 8 0 4 16 14 35 21 73 26 69 -1 75 646 4 396 9 586 16 599 6 10 9 26 7 35 -2 9 5 26 17 39 17 18 25 20 40 12 42 -22 60 -76 74 -217 6 -55 29 -231 46 -347 12 -78 35 -116 84 -140 47 -22 76 -20 135 10 66 33 78 58 80 172 2 97 28 182 56 182 7 0 15 5 17 12 3 7 40 10 120 9 120 -2 153 5 196 43 24 21 30 74 12 121 -18 47 -59 55 -270 55 -231 0 -248 5 -285 81 -14 29 -25 61 -25 72 0 10 -6 31 -14 45 -7 15 -18 38 -24 52 -34 84 -58 123 -101 171 l -49 54 -65 -2 -65 -1 -4 101 c -4 113 -16 142 -73 177 -40 25 -107 26 -154 3 z "
      ></path>
      <path
        d="M 670 1543 c -19 -7 -75 -66 -72 -75 1 -5 -2 -8 -7 -8 -15 0 -20 -39 -22 -157 -1 -62 -5 -113 -10 -113 -5 0 -9 -7 -9 -15 0 -8 -1 -16 -2 -16 -2 -1 -97 -5 -213 -8 -202 -6 -211 -7 -242 -30 -61 -46 -79 -120 -43 -178 36 -60 55 -66 243 -73 248 -8 255 -13 266 -207 l 7 -112 42 -41 c 36 -36 46 -41 84 -39 47 1 108 24 108 39 0 6 7 10 15 10 8 0 15 4 15 9 0 5 5 22 11 38 5 15 12 106 15 203 2 96 6 222 9 280 2 58 5 171 5 252 2 164 -7 194 -68 231 -29 16 -99 22 -132 10 z "
      ></path>
    </g>
  </g>
</svg>
